<svg width="18" height="18" viewBox="0 0 18 18" fill="none" xmlns="http://www.w3.org/2000/svg">
<path fill-rule="evenodd" clip-rule="evenodd" d="M12.9998 4.76457L10.6882 6.97749C10.6285 7.03702 10.6106 7.12666 10.6428 7.20457C10.675 7.28248 10.751 7.3333 10.8353 7.33332H17.3332V1.10416C17.3327 1.02008 17.2816 0.944558 17.2038 0.912674C17.126 0.88079 17.0367 0.898794 16.9773 0.958322L14.8044 3.03707C12.7332 1.0125 9.75813 0.210711 6.95002 0.920285C4.14191 1.62986 1.90486 3.74867 1.044 6.51416L3.43067 7.25999C4.0288 5.3392 5.57573 3.863 7.52239 3.35536C9.46905 2.84771 11.5399 3.38049 12.9998 4.76457ZM7.38013 10.7951C7.34786 10.7174 7.27195 10.6667 7.18775 10.6667H0.666504V16.8154C0.666522 16.8997 0.717344 16.9757 0.795254 17.0079C0.873163 17.0401 0.962802 17.0222 1.02234 16.9625L3.17067 14.9408C5.23866 16.977 8.21801 17.7889 11.0331 17.0833C13.8482 16.3778 16.0925 14.2567 16.9557 11.4858L14.569 10.74C13.97 12.6626 12.4206 14.1396 10.4715 14.6459C8.5224 15.1522 6.45003 14.616 4.99109 13.2279L7.33525 11.0221C7.3947 10.9624 7.4124 10.8729 7.38013 10.7951Z" fill="white"/>
</svg>
